<svg width="139" height="225" viewBox="0 0 139 225" fill="none" xmlns="http://www.w3.org/2000/svg">
<path fill-rule="evenodd" clip-rule="evenodd" d="M47.1825 146.444V146.928V147.493C47.1825 147.708 47.1691 147.938 47.1429 148.18C47.1149 148.423 47.1019 148.731 47.1019 149.108C47.1019 149.861 47.089 150.776 47.0624 151.852C47.0348 152.928 46.9952 154.218 46.941 155.726V202.291C44.4659 203.044 42.0452 203.152 39.677 202.613C38.6555 202.398 37.6062 202.035 36.5305 201.524C35.4551 201.014 34.3774 200.286 33.3018 199.345C32.2261 198.404 31.1897 197.22 30.1948 195.794C29.1995 194.369 28.2979 192.607 27.4915 190.508C25.8772 186.473 24.2759 182.438 22.6892 178.403C21.103 174.368 19.6904 170.736 18.4524 167.508C17.0002 163.742 15.5752 160.111 14.1758 156.613L14.0952 191.881C14.0952 193.117 13.9736 194.356 13.7324 195.592C13.4895 196.831 12.9917 197.959 12.238 198.982C11.4858 200.004 10.5037 200.825 9.29321 201.444C8.08301 202.061 6.56226 202.372 4.73242 202.372H4.25L4.33032 201.968V199.788C4.38452 199.036 4.41064 198.122 4.41064 197.046C4.41064 195.969 4.43701 194.678 4.49121 193.172V146.606L4.8147 146.526C5.13647 146.472 5.51416 146.391 5.94458 146.283C6.3208 146.176 6.75098 146.096 7.23535 146.041C7.71973 145.987 8.25684 145.961 8.84985 145.961C9.97974 145.961 11.2427 146.109 12.6418 146.404C14.041 146.7 15.4666 147.306 16.9199 148.221C18.3721 149.135 19.6626 150.4 20.7927 152.013C21.9224 153.627 22.9998 155.752 24.0212 158.388L37.3369 192.365L37.4175 157.017C37.4175 155.78 37.5259 154.542 37.741 153.305C37.9561 152.067 38.4404 150.937 39.1926 149.916C39.9465 148.892 40.9417 148.058 42.1799 147.413C43.4167 146.767 44.9227 146.444 46.6976 146.444H47.1825Z" fill="#262525"/>
<path fill-rule="evenodd" clip-rule="evenodd" d="M54.7303 199.332C53.9764 198.309 53.451 197.166 53.1566 195.901C52.8597 194.638 52.712 193.387 52.712 192.149V161.078C52.712 159.196 52.8597 157.554 53.1566 156.156C53.451 154.757 53.8961 153.52 54.4872 152.443C55.5629 150.507 57.2054 149.107 59.411 148.247C60.1102 147.978 60.8363 147.749 61.59 147.56C62.3422 147.373 63.1503 147.225 64.0109 147.117C65.0863 147.01 66.2426 146.928 67.4808 146.876C68.7177 146.821 70.0363 146.794 71.4359 146.794H79.9081C83.4061 146.794 86.1093 146.754 88.0194 146.674C89.9296 146.593 91.1002 146.526 91.5304 146.472H91.6915L91.7716 146.391H92.2565V146.876C92.2565 147.789 92.161 148.597 91.9738 149.296C91.785 149.996 91.5568 150.641 91.2872 151.233C90.6964 152.256 89.8622 153.062 88.7863 153.655C87.7106 154.192 86.5658 154.516 85.3571 154.622C84.1454 154.731 82.9218 154.785 81.6835 154.785H64.8976C64.5758 154.837 64.3065 154.892 64.0914 154.946C63.8763 154.998 63.6874 155.079 63.5265 155.187C63.2045 155.348 62.9613 155.563 62.8004 155.833C62.5853 156.102 62.4506 156.465 62.3964 156.922C62.3422 157.38 62.3158 157.905 62.3158 158.496V169.391H72.4027C75.9552 169.391 78.6844 169.35 80.5946 169.27C82.5048 169.189 83.6754 169.122 84.1058 169.068L84.2667 168.987H84.7511V169.472C84.7511 171.247 84.4276 172.701 83.7821 173.83C83.5131 174.422 83.1632 174.906 82.7345 175.282C82.3026 175.658 81.8182 175.982 81.2811 176.251C80.2052 176.788 79.0624 177.112 77.8505 177.22C76.64 177.327 75.4164 177.381 74.1798 177.381H62.3158V190.454C62.3158 193.952 62.3702 196.655 62.4767 198.565C62.5853 200.475 62.6656 201.646 62.7181 202.074V202.237L62.8004 202.722H62.3158H62.2355C60.4601 202.722 58.9525 202.411 57.7157 201.794C56.4777 201.175 55.4823 200.353 54.7303 199.332Z" fill="#262525"/>
<path fill-rule="evenodd" clip-rule="evenodd" d="M137.181 146.081V146.565C137.181 148.288 136.886 149.74 136.294 150.924C135.649 151.945 134.788 152.753 133.711 153.345C132.689 153.882 131.56 154.205 130.322 154.314C129.085 154.42 127.846 154.474 126.61 154.474H120.154V158.833V190.145C120.154 193.641 120.208 196.345 120.315 198.255C120.422 200.166 120.504 201.335 120.556 201.766V201.927V202.411H120.073C118.244 202.411 116.723 202.102 115.513 201.483C114.302 200.864 113.32 200.045 112.568 199.021C111.814 198 111.289 196.87 110.993 195.632C110.698 194.395 110.55 193.159 110.55 191.92V157.056C110.55 156.626 110.563 156.196 110.591 155.765C110.617 155.335 110.656 154.905 110.711 154.474H106.595C103.099 154.474 100.381 154.529 98.4446 154.635C96.5081 154.744 95.3242 154.824 94.894 154.879H94.7312L94.5706 154.959L94.4097 154.796C94.355 154.744 94.3291 154.69 94.3291 154.635C94.2749 154.635 94.2485 154.581 94.2485 154.474C94.2485 152.699 94.5706 151.246 95.2161 150.116C95.8086 149.094 96.6428 148.288 97.7188 147.695C98.7944 147.158 99.9377 146.821 101.148 146.687C102.358 146.552 103.583 146.485 104.82 146.485H124.915C128.413 146.485 131.116 146.444 133.026 146.363C134.936 146.283 136.106 146.215 136.536 146.163H136.697V146.081H137.181Z" fill="#262525"/>
<path fill-rule="evenodd" clip-rule="evenodd" d="M11.0179 211.67C12.5614 211.67 13.7982 212.12 14.7311 213.022C15.6637 213.924 16.1285 215.26 16.1285 217.032V224.047H13.2645V217.4C13.2645 216.33 13.0114 215.523 12.5072 214.981C12.0033 214.439 11.2855 214.168 10.3527 214.168C9.29846 214.168 8.4657 214.485 7.85461 215.119C7.24402 215.753 6.93835 216.666 6.93835 217.859V224.047H4.07263V211.807H6.80042V213.388C7.27478 212.823 7.86951 212.395 8.58875 212.106C9.30652 211.815 10.1161 211.67 11.0179 211.67ZM24.7472 209.194C23.5404 209.194 22.9357 209.851 22.9357 211.166V211.899H26.3058V214.191H23.028V224.047H20.1637V214.191H18.1469V211.899H20.1637V211.119C20.1637 209.805 20.5448 208.77 21.3085 208.013C22.0734 207.258 23.151 206.88 24.5404 206.88C25.6405 206.88 26.5045 207.102 27.1302 207.543L26.329 209.698C25.8395 209.363 25.3124 209.194 24.7472 209.194ZM35.5897 223.382L34.7865 221.342C34.3597 221.678 33.8241 221.846 33.1823 221.846C32.632 221.846 32.2133 221.69 31.9225 221.376C31.6317 221.063 31.4857 220.609 31.4857 220.013V214.191H34.7638V211.899H31.4857V209.102H28.6215V211.899H26.6046V214.191H28.6215V220.081C28.6215 221.426 28.9877 222.45 29.722 223.153C30.4542 223.856 31.494 224.208 32.8387 224.208C33.3727 224.208 33.8817 224.139 34.3629 224.001C34.8441 223.863 35.2531 223.657 35.5897 223.382ZM39.0958 224.208C38.577 224.208 38.1337 224.027 37.7655 223.669C37.3993 223.309 37.2157 222.854 37.2157 222.304C37.2157 221.739 37.3961 221.281 37.7545 220.93C38.1139 220.578 38.5604 220.402 39.0958 220.402C39.6298 220.402 40.0778 220.578 40.4362 220.93C40.7958 221.281 40.9747 221.739 40.9747 222.304C40.9747 222.854 40.7924 223.309 40.4247 223.669C40.0582 224.027 39.6149 224.208 39.0958 224.208ZM49.1583 224.208C47.8905 224.208 46.7506 223.94 45.7423 223.405C44.734 222.871 43.9471 222.125 43.3824 221.169C42.8175 220.215 42.5331 219.135 42.5331 217.926C42.5331 216.72 42.8175 215.643 43.3824 214.695C43.9471 213.748 44.7306 213.007 45.7306 212.472C46.7323 211.936 47.8741 211.67 49.1583 211.67C50.3654 211.67 51.423 211.913 52.3326 212.403C53.2411 212.892 53.9257 213.595 54.3839 214.512L52.1835 215.794C51.8317 215.229 51.3934 214.805 50.8663 214.523C50.3375 214.241 49.7609 214.099 49.1351 214.099C48.066 214.099 47.1793 214.447 46.4764 215.142C45.7736 215.837 45.422 216.766 45.422 217.926C45.422 219.089 45.7687 220.016 46.465 220.711C47.1595 221.407 48.0497 221.754 49.1351 221.754C49.7609 221.754 50.3375 221.613 50.8663 221.33C51.3934 221.048 51.8317 220.624 52.1835 220.059L54.3839 221.342C53.9093 222.258 53.2181 222.966 52.3097 223.462C51.3998 223.958 50.3505 224.208 49.1583 224.208ZM62.2916 224.208C61.0238 224.208 59.8842 223.94 58.8771 223.405C57.8673 222.871 57.0804 222.125 56.5157 221.169C55.9508 220.215 55.6683 219.135 55.6683 217.926C55.6683 216.72 55.9508 215.643 56.5157 214.695C57.0804 213.748 57.8639 213.007 58.8641 212.472C59.8658 211.936 61.0074 211.67 62.2916 211.67C63.4987 211.67 64.5563 211.913 65.4659 212.403C66.3744 212.892 67.0592 213.595 67.5172 214.512L65.3165 215.794C64.9652 215.229 64.527 214.805 63.9996 214.523C63.4708 214.241 62.8944 214.099 62.2687 214.099C61.1996 214.099 60.3126 214.447 59.6097 215.142C58.9069 215.837 58.5553 216.766 58.5553 217.926C58.5553 219.089 58.9034 220.016 59.5983 220.711C60.2931 221.407 61.1832 221.754 62.2687 221.754C62.8944 221.754 63.4708 221.613 63.9996 221.33C64.527 221.048 64.9652 220.624 65.3165 220.059L67.5172 221.342C67.0443 222.258 66.3529 222.966 65.4432 223.462C64.5331 223.958 63.484 224.208 62.2916 224.208ZM77.5109 223.382C77.1754 223.657 76.7665 223.863 76.2853 224.001C75.8026 224.139 75.295 224.208 74.7616 224.208C73.4161 224.208 72.3771 223.856 71.6444 223.153C70.9103 222.45 70.5424 221.426 70.5424 220.081V214.191H68.5258V211.899H70.5424V209.102H73.4081V211.899H76.6864V214.191H73.4081V220.013C73.4081 220.609 73.5524 221.063 73.8434 221.376C74.1339 221.69 74.5546 221.846 75.1046 221.846C75.7469 221.846 76.2806 221.678 76.7091 221.342L77.5109 223.382ZM79.8722 207.039H82.7362V224.047H79.8722V207.039ZM98.4828 207.039V224.047H95.7335V222.465C95.2587 223.045 94.6742 223.482 93.9794 223.771C93.2848 224.061 92.5162 224.208 91.6754 224.208C90.4994 224.208 89.4418 223.948 88.5006 223.427C87.5614 222.909 86.8239 222.171 86.2904 221.215C85.755 220.261 85.4872 219.164 85.4872 217.926C85.4872 216.689 85.755 215.597 86.2904 214.649C86.8239 213.702 87.5614 212.968 88.5006 212.449C89.4418 211.93 90.4994 211.67 91.6754 211.67C92.485 211.67 93.2274 211.807 93.899 212.083C94.5707 212.357 95.1439 212.769 95.6185 213.319V207.039H98.4828ZM92.0201 221.754C92.7067 221.754 93.3258 221.598 93.8759 221.284C94.4264 220.971 94.8612 220.524 95.1832 219.944C95.5038 219.363 95.6644 218.691 95.6644 217.926C95.6644 217.162 95.5038 216.49 95.1832 215.909C94.8612 215.329 94.4264 214.883 93.8759 214.569C93.3258 214.255 92.7067 214.099 92.0201 214.099C91.3322 214.099 90.7133 214.255 90.1625 214.569C89.6127 214.883 89.1774 215.329 88.8573 215.909C88.5353 216.49 88.3761 217.162 88.3761 217.926C88.3761 218.691 88.5353 219.363 88.8573 219.944C89.1774 220.524 89.6127 220.971 90.1625 221.284C90.7133 221.598 91.3322 221.754 92.0201 221.754ZM103.16 224.208C102.639 224.208 102.196 224.027 101.829 223.669C101.462 223.309 101.279 222.854 101.279 222.304C101.279 221.739 101.459 221.281 101.818 220.93C102.178 220.578 102.624 220.402 103.16 220.402C103.693 220.402 104.14 220.578 104.5 220.93C104.858 221.281 105.039 221.739 105.039 222.304C105.039 222.854 104.855 223.309 104.488 223.669C104.122 224.027 103.679 224.208 103.16 224.208ZM119.456 211.807V224.047H116.728V222.488C116.27 223.038 115.697 223.462 115.009 223.761C114.321 224.058 113.58 224.208 112.785 224.208C111.15 224.208 109.864 223.753 108.923 222.843C107.983 221.935 107.514 220.586 107.514 218.798V211.807H110.379V218.409C110.379 219.507 110.628 220.33 111.124 220.872C111.621 221.414 112.327 221.687 113.244 221.687C114.268 221.687 115.081 221.368 115.685 220.734C116.288 220.1 116.59 219.187 116.59 217.996V211.807H119.456ZM132.772 221.754V224.047H122.205V222.235L128.922 214.099H122.343V211.807H132.589V213.618L125.849 221.754H132.772Z" fill="#262525"/>
<path fill-rule="evenodd" clip-rule="evenodd" d="M84.9896 141.565C84.3856 141.565 83.8419 141.436 83.3593 141.182C82.8781 140.926 82.5018 140.569 82.2323 140.114C81.9613 139.658 81.8265 139.141 81.8265 138.564C81.8265 137.988 81.9613 137.474 82.2323 137.02C82.5018 136.569 82.8759 136.214 83.3541 135.959C83.8317 135.703 84.3768 135.577 84.9896 135.577C85.5677 135.577 86.0719 135.693 86.5072 135.927C86.9406 136.16 87.2675 136.495 87.486 136.933L86.4349 137.546C86.2675 137.277 86.0573 137.075 85.806 136.94C85.5546 136.804 85.2789 136.736 84.9799 136.736C84.4694 136.736 84.0455 136.902 83.7103 137.234C83.3737 137.567 83.2062 138.009 83.2062 138.564C83.2062 139.119 83.3717 139.563 83.7042 139.894C84.0355 140.228 84.4611 140.394 84.9799 140.394C85.2789 140.394 85.5546 140.325 85.806 140.19C86.0573 140.055 86.2675 139.853 86.4349 139.582L87.486 140.197C87.2611 140.633 86.9291 140.972 86.4957 141.208C86.0624 141.446 85.5594 141.565 84.9896 141.565ZM94.078 138.597C94.078 138.692 94.0702 138.827 94.0551 139.003H89.4686C89.5487 139.433 89.7589 139.774 90.0975 140.026C90.4371 140.277 90.8593 140.403 91.3617 140.403C92.0038 140.403 92.5343 140.192 92.9496 139.77L93.6842 140.612C93.4215 140.926 93.0895 141.162 92.6874 141.323C92.2863 141.484 91.8331 141.565 91.329 141.565C90.6869 141.565 90.1219 141.436 89.6324 141.182C89.1434 140.926 88.7657 140.569 88.4994 140.114C88.2335 139.658 88.1002 139.141 88.1002 138.564C88.1002 137.996 88.2299 137.483 88.4874 137.027C88.7474 136.57 89.1071 136.214 89.5668 135.959C90.0262 135.703 90.5455 135.577 91.1219 135.577C91.6906 135.577 92.1993 135.702 92.6493 135.953C93.0978 136.206 93.4474 136.559 93.7003 137.015C93.9515 137.472 94.078 137.999 94.078 138.597ZM91.1219 136.671C90.684 136.671 90.3138 136.8 90.0101 137.06C89.7079 137.319 89.5226 137.664 89.4567 138.094H92.7743C92.7169 137.671 92.5375 137.327 92.2389 137.065C91.9381 136.802 91.5668 136.671 91.1219 136.671ZM96.6942 136.495C97.0883 135.882 97.7816 135.577 98.7753 135.577V136.879C98.6566 136.856 98.5516 136.846 98.4564 136.846C97.9242 136.846 97.5092 137.001 97.2084 137.311C96.9098 137.621 96.7599 138.068 96.7599 138.653V141.487H95.3922V135.641H96.6942V136.495ZM103.667 141.17C103.508 141.302 103.312 141.4 103.083 141.466C102.853 141.532 102.609 141.565 102.354 141.565C101.711 141.565 101.215 141.397 100.866 141.06C100.514 140.725 100.34 140.236 100.34 139.594V136.781H99.3763V135.685H100.34V134.35H101.708V135.685H103.275V136.781H101.708V139.561C101.708 139.845 101.777 140.063 101.917 140.211C102.055 140.362 102.255 140.436 102.518 140.436C102.825 140.436 103.081 140.356 103.284 140.197L103.667 141.17ZM104.796 135.641H106.164V141.487H104.796V135.641ZM105.485 134.678C105.237 134.678 105.029 134.6 104.862 134.442C104.694 134.286 104.61 134.091 104.61 133.857C104.61 133.624 104.694 133.429 104.862 133.271C105.029 133.113 105.237 133.036 105.485 133.036C105.734 133.036 105.942 133.112 106.11 133.259C106.277 133.409 106.361 133.598 106.361 133.824C106.361 134.064 106.278 134.268 106.115 134.432C105.95 134.596 105.742 134.678 105.485 134.678ZM110.335 134.394C109.759 134.394 109.47 134.706 109.47 135.335V135.685H111.079V136.781H109.514V141.487H108.146V136.781H107.182V135.685H108.146V135.312C108.146 134.685 108.328 134.191 108.693 133.829C109.057 133.468 109.572 133.287 110.236 133.287C110.762 133.287 111.174 133.394 111.473 133.606L111.091 134.634C110.857 134.473 110.606 134.394 110.335 134.394ZM112.876 135.641H114.244V141.487H112.876V135.641ZM113.565 134.678C113.316 134.678 113.109 134.6 112.941 134.442C112.772 134.286 112.688 134.091 112.688 133.857C112.688 133.624 112.772 133.429 112.941 133.271C113.109 133.113 113.316 133.036 113.565 133.036C113.814 133.036 114.02 133.112 114.189 133.259C114.358 133.409 114.441 133.598 114.441 133.824C114.441 134.064 114.359 134.268 114.195 134.432C114.03 134.596 113.82 134.678 113.565 134.678ZM118.721 141.565C118.116 141.565 117.573 141.436 117.09 141.182C116.609 140.926 116.232 140.569 115.964 140.114C115.693 139.658 115.558 139.141 115.558 138.564C115.558 137.988 115.693 137.474 115.964 137.02C116.232 136.569 116.607 136.214 117.085 135.959C117.563 135.703 118.108 135.577 118.721 135.577C119.299 135.577 119.803 135.693 120.238 135.927C120.672 136.16 120.998 136.495 121.217 136.933L120.165 137.546C119.998 137.277 119.788 137.075 119.536 136.94C119.286 136.804 119.01 136.736 118.711 136.736C118.2 136.736 117.776 136.902 117.442 137.234C117.104 137.567 116.937 138.009 116.937 138.564C116.937 139.119 117.103 139.563 117.435 139.894C117.767 140.228 118.192 140.394 118.711 140.394C119.01 140.394 119.286 140.325 119.536 140.19C119.788 140.055 119.998 139.853 120.165 139.582L121.217 140.197C120.992 140.633 120.66 140.972 120.227 141.208C119.793 141.446 119.29 141.565 118.721 141.565ZM124.633 135.577C125.495 135.577 126.154 135.782 126.608 136.194C127.065 136.606 127.294 137.229 127.294 138.062V141.487H126.001V140.776C125.833 141.031 125.593 141.226 125.285 141.363C124.974 141.497 124.6 141.565 124.161 141.565C123.724 141.565 123.341 141.489 123.012 141.34C122.685 141.19 122.431 140.982 122.251 140.715C122.073 140.449 121.984 140.149 121.984 139.812C121.984 139.287 122.179 138.866 122.57 138.548C122.959 138.231 123.575 138.071 124.414 138.071H125.925V137.984C125.925 137.575 125.802 137.262 125.557 137.043C125.315 136.823 124.95 136.715 124.469 136.715C124.14 136.715 123.818 136.766 123.5 136.868C123.183 136.969 122.915 137.112 122.695 137.295L122.16 136.298C122.465 136.065 122.834 135.886 123.265 135.762C123.695 135.638 124.152 135.577 124.633 135.577ZM124.447 140.568C124.791 140.568 125.094 140.489 125.36 140.333C125.628 140.175 125.815 139.952 125.925 139.66V138.981H124.513C123.724 138.981 123.33 139.239 123.33 139.758C123.33 140.006 123.429 140.203 123.626 140.349C123.823 140.495 124.098 140.568 124.447 140.568ZM132.56 141.17C132.399 141.302 132.204 141.4 131.974 141.466C131.744 141.532 131.501 141.565 131.246 141.565C130.604 141.565 130.107 141.397 129.757 141.06C129.407 140.725 129.231 140.236 129.231 139.594V136.781H128.267V135.685H129.231V134.35H130.601V135.685H132.166V136.781H130.601V139.561C130.601 139.845 130.67 140.063 130.808 140.211C130.947 140.362 131.148 140.436 131.411 140.436C131.717 140.436 131.972 140.356 132.176 140.197L132.56 141.17ZM138.986 138.597C138.986 138.692 138.978 138.827 138.965 139.003H134.377C134.457 139.433 134.667 139.774 135.007 140.026C135.347 140.277 135.767 140.403 136.272 140.403C136.913 140.403 137.443 140.192 137.858 139.77L138.592 140.612C138.33 140.926 137.998 141.162 137.596 141.323C137.195 141.484 136.741 141.565 136.239 141.565C135.595 141.565 135.03 141.436 134.541 141.182C134.053 140.926 133.675 140.569 133.408 140.114C133.142 139.658 133.008 139.141 133.008 138.564C133.008 137.996 133.138 137.483 133.398 137.027C133.657 136.57 134.015 136.214 134.475 135.959C134.937 135.703 135.454 135.577 136.031 135.577C136.6 135.577 137.11 135.702 137.557 135.953C138.006 136.206 138.358 136.559 138.609 137.015C138.86 137.472 138.986 137.999 138.986 138.597ZM136.031 136.671C135.592 136.671 135.222 136.8 134.919 137.06C134.616 137.319 134.432 137.664 134.366 138.094H137.682C137.625 137.671 137.446 137.327 137.147 137.065C136.848 136.802 136.475 136.671 136.031 136.671Z" fill="#262525"/>
<path fill-rule="evenodd" clip-rule="evenodd" d="M94.3101 101.402C90.825 118.696 74.2178 127.084 74.2178 127.084V112.811L94.3101 101.402Z" fill="url(#paint0_linear_22_46)"/>
<path fill-rule="evenodd" clip-rule="evenodd" d="M27.9252 64.8255L43.4397 73.6773C61.5788 84.0254 61.1352 105.956 61.0796 107.513L34.9523 92.6786L34.9427 92.695L33.1656 91.6817L17.6507 82.8331C-1.16126 72.0974 0.0145165 48.9019 0.0145165 48.9019L27.9252 64.8255Z" fill="url(#paint1_linear_22_46)"/>
<path fill-rule="evenodd" clip-rule="evenodd" d="M39.7807 40.247C58.5982 50.9794 57.417 74.175 57.417 74.175L29.5099 58.2514L18.3505 51.9171C-0.465166 41.1831 0.712324 17.9875 0.712324 17.9875L28.6213 33.9094L39.7807 40.247Z" fill="url(#paint2_linear_22_46)"/>
<path fill-rule="evenodd" clip-rule="evenodd" d="M40.9829 101.393C44.4631 118.692 61.0765 127.084 61.0765 127.084V112.802L40.9829 101.393Z" fill="url(#paint3_linear_22_46)"/>
<path fill-rule="evenodd" clip-rule="evenodd" d="M33.7043 36.9017C41.5906 49.5588 40.344 59.0938 40.344 72.8694V90.7292C40.344 92.5604 40.4951 94.3077 40.7661 95.9796L61.0764 107.512V90.7292V72.8694C61.7153 54.5382 49.1074 45.3955 43.2524 42.1521C41.4954 41.1782 33.7043 36.9017 33.7043 36.9017Z" fill="url(#paint4_linear_22_46)"/>
<path fill-rule="evenodd" clip-rule="evenodd" d="M89.9182 4.33684C108.808 -6.26414 128.085 6.68694 128.085 6.68694L100.064 22.4135L84.4905 31.157C63.6267 41.7021 46.3318 28.4801 46.3318 28.4801L74.3428 13.0787L89.9182 4.33684Z" fill="url(#paint5_linear_22_46)"/>
<path fill-rule="evenodd" clip-rule="evenodd" d="M45.3762 4.17093C26.4866 -6.43001 7.20947 6.52105 7.20947 6.52105L35.2302 22.2476L51.0142 31.2424C69.7869 41.3752 88.9707 28.6426 88.9707 28.6426L45.3762 4.17093Z" fill="url(#paint6_linear_22_46)"/>
<path fill-rule="evenodd" clip-rule="evenodd" d="M107.392 64.8255L91.879 73.6774C73.7381 84.0254 74.1832 105.956 74.2374 107.513L100.365 92.6786L100.374 92.6951L102.153 91.6817L117.668 82.8331C136.48 72.0975 135.303 48.9019 135.303 48.9019L107.392 64.8255Z" fill="url(#paint7_linear_22_46)"/>
<path fill-rule="evenodd" clip-rule="evenodd" d="M95.5368 40.247C76.7214 50.9794 77.9004 74.175 77.9004 74.175L105.809 58.2514L116.969 51.9171C135.784 41.1831 134.605 17.9875 134.605 17.9875L106.696 33.9094L95.5368 40.247Z" fill="url(#paint8_linear_22_46)"/>
<path fill-rule="evenodd" clip-rule="evenodd" d="M101.612 36.9017C93.7264 49.5588 94.973 59.0939 94.973 72.8694V90.7292C94.973 92.5604 94.8217 94.3078 94.5507 95.9797L74.2426 107.512V90.7292V72.8694C73.6014 54.5382 86.2094 45.3956 92.0648 42.1521C93.8217 41.1782 101.612 36.9017 101.612 36.9017Z" fill="url(#paint9_linear_22_46)"/>
<defs>
<linearGradient id="paint0_linear_22_46" x1="96.271" y1="114.827" x2="70.3937" y2="114.827" gradientUnits="userSpaceOnUse">
<stop stop-color="#6FCE73"/>
<stop offset="1" stop-color="#4FBD6D"/>
</linearGradient>
<linearGradient id="paint1_linear_22_46" x1="55.9435" y1="44.9455" x2="1.24593" y2="44.9455" gradientUnits="userSpaceOnUse">
<stop stop-color="#2A9430"/>
<stop offset="1" stop-color="#4FBD6D"/>
</linearGradient>
<linearGradient id="paint2_linear_22_46" x1="52.6516" y1="14.1948" x2="1.85483" y2="14.1948" gradientUnits="userSpaceOnUse">
<stop stop-color="#2A9430"/>
<stop offset="1" stop-color="#4FBD6D"/>
</linearGradient>
<linearGradient id="paint3_linear_22_46" x1="63.0377" y1="114.823" x2="37.1586" y2="114.823" gradientUnits="userSpaceOnUse">
<stop stop-color="#6FCE73"/>
<stop offset="1" stop-color="#4FBD6D"/>
</linearGradient>
<linearGradient id="paint4_linear_22_46" x1="63.7736" y1="73.8121" x2="28.4903" y2="73.8121" gradientUnits="userSpaceOnUse">
<stop stop-color="#6FCE73"/>
<stop offset="1" stop-color="#4FBD6D"/>
</linearGradient>
<linearGradient id="paint5_linear_22_46" x1="121.197" y1="-2.20149" x2="47.9991" y2="-2.20149" gradientUnits="userSpaceOnUse">
<stop stop-color="#2A9430"/>
<stop offset="1" stop-color="#4FBD6D"/>
</linearGradient>
<linearGradient id="paint6_linear_22_46" x1="96.9505" y1="18.3785" x2="-8.35179" y2="18.3785" gradientUnits="userSpaceOnUse">
<stop stop-color="#6FCE73"/>
<stop offset="1" stop-color="#4FBD6D"/>
</linearGradient>
<linearGradient id="paint7_linear_22_46" x1="130.17" y1="44.9456" x2="75.4725" y2="44.9456" gradientUnits="userSpaceOnUse">
<stop stop-color="#2A9430"/>
<stop offset="1" stop-color="#4FBD6D"/>
</linearGradient>
<linearGradient id="paint8_linear_22_46" x1="129.84" y1="14.1948" x2="79.0428" y2="14.1948" gradientUnits="userSpaceOnUse">
<stop stop-color="#2A9430"/>
<stop offset="1" stop-color="#4FBD6D"/>
</linearGradient>
<linearGradient id="paint9_linear_22_46" x1="104.286" y1="73.8121" x2="69.0053" y2="73.8121" gradientUnits="userSpaceOnUse">
<stop stop-color="#6FCE73"/>
<stop offset="1" stop-color="#4FBD6D"/>
</linearGradient>
</defs>
</svg>
