<?xml version="1.0" standalone="no"?>
<svg xmlns="http://www.w3.org/2000/svg" width="1024" height="1331" viewBox="0 0 1000 1300"><defs><clipPath id="clip-path-dot-color"><circle cx="261.5" cy="432.5" r="8.5" transform="rotate(0,261.5,432.5)"/><path d="M 253 458v 17h 8.5a 8.5 8.5, 0, 0, 0, 0 -17" transform="rotate(-90,261.5,466.5)"/><path d="M 253 475v 17h 8.5a 8.5 8.5, 0, 0, 0, 0 -17" transform="rotate(90,261.5,483.5)"/><circle cx="261.5" cy="551.5" r="8.5" transform="rotate(0,261.5,551.5)"/><path d="M 253 594v 17h 8.5a 8.5 8.5, 0, 0, 0, 0 -17" transform="rotate(180,261.5,602.5)"/><circle cx="278.5" cy="449.5" r="8.5" transform="rotate(0,278.5,449.5)"/><circle cx="278.5" cy="568.5" r="8.5" transform="rotate(0,278.5,568.5)"/><path d="M 270 594v 17h 8.5a 8.5 8.5, 0, 0, 0, 0 -17" transform="rotate(0,278.5,602.5)"/><path d="M 287 424v 17h 8.5a 8.5 8.5, 0, 0, 0, 0 -17" transform="rotate(180,295.5,432.5)"/><path d="M 287 458v 17h 8.5a 8.5 8.5, 0, 0, 0, 0 -17" transform="rotate(-90,295.5,466.5)"/><rect x="287" y="475" width="17" height="17" transform="rotate(0,295.5,483.5)"/><rect x="287" y="492" width="17" height="17" transform="rotate(0,295.5,500.5)"/><rect x="287" y="509" width="17" height="17" transform="rotate(0,295.5,517.5)"/><rect x="287" y="526" width="17" height="17" transform="rotate(0,295.5,534.5)"/><path d="M 287 543v 17h 17a 17 17, 0, 0, 0, -17 -17" transform="rotate(180,295.5,551.5)"/><circle cx="295.5" cy="585.5" r="8.5" transform="rotate(0,295.5,585.5)"/><path d="M 304 424v 17h 8.5a 8.5 8.5, 0, 0, 0, 0 -17" transform="rotate(0,312.5,432.5)"/><rect x="304" y="492" width="17" height="17" transform="rotate(0,312.5,500.5)"/><path d="M 304 543v 17h 17a 17 17, 0, 0, 0, -17 -17" transform="rotate(0,312.5,551.5)"/><path d="M 304 560v 17h 17a 17 17, 0, 0, 0, -17 -17" transform="rotate(180,312.5,568.5)"/><circle cx="312.5" cy="636.5" r="8.5" transform="rotate(0,312.5,636.5)"/><path d="M 321 441v 17h 8.5a 8.5 8.5, 0, 0, 0, 0 -17" transform="rotate(180,329.5,449.5)"/><path d="M 321 475v 17h 17a 17 17, 0, 0, 0, -17 -17" transform="rotate(-90,329.5,483.5)"/><rect x="321" y="492" width="17" height="17" transform="rotate(0,329.5,500.5)"/><rect x="321" y="560" width="17" height="17" transform="rotate(0,329.5,568.5)"/><rect x="321" y="577" width="17" height="17" transform="rotate(0,329.5,585.5)"/><path d="M 321 594v 17h 8.5a 8.5 8.5, 0, 0, 0, 0 -17" transform="rotate(90,329.5,602.5)"/><path d="M 338 424v 17h 17a 17 17, 0, 0, 0, -17 -17" transform="rotate(-90,346.5,432.5)"/><rect x="338" y="441" width="17" height="17" transform="rotate(0,346.5,449.5)"/><rect x="338" y="458" width="17" height="17" transform="rotate(0,346.5,466.5)"/><rect x="338" y="475" width="17" height="17" transform="rotate(0,346.5,483.5)"/><rect x="338" y="492" width="17" height="17" transform="rotate(0,346.5,500.5)"/><rect x="338" y="509" width="17" height="17" transform="rotate(0,346.5,517.5)"/><path d="M 338 526v 17h 17a 17 17, 0, 0, 0, -17 -17" transform="rotate(180,346.5,534.5)"/><rect x="338" y="560" width="17" height="17" transform="rotate(0,346.5,568.5)"/><path d="M 338 577v 17h 17a 17 17, 0, 0, 0, -17 -17" transform="rotate(90,346.5,585.5)"/><circle cx="346.5" cy="619.5" r="8.5" transform="rotate(0,346.5,619.5)"/><rect x="355" y="424" width="17" height="17" transform="rotate(0,363.5,432.5)"/><rect x="355" y="458" width="17" height="17" transform="rotate(0,363.5,466.5)"/><rect x="355" y="492" width="17" height="17" transform="rotate(0,363.5,500.5)"/><path d="M 355 526v 17h 8.5a 8.5 8.5, 0, 0, 0, 0 -17" transform="rotate(0,363.5,534.5)"/><rect x="355" y="560" width="17" height="17" transform="rotate(0,363.5,568.5)"/><path d="M 355 594v 17h 8.5a 8.5 8.5, 0, 0, 0, 0 -17" transform="rotate(180,363.5,602.5)"/><path d="M 355 628v 17h 8.5a 8.5 8.5, 0, 0, 0, 0 -17" transform="rotate(180,363.5,636.5)"/><rect x="372" y="424" width="17" height="17" transform="rotate(0,380.5,432.5)"/><path d="M 372 458v 17h 8.5a 8.5 8.5, 0, 0, 0, 0 -17" transform="rotate(0,380.5,466.5)"/><path d="M 372 492v 17h 8.5a 8.5 8.5, 0, 0, 0, 0 -17" transform="rotate(0,380.5,500.5)"/><path d="M 372 543v 17h 8.5a 8.5 8.5, 0, 0, 0, 0 -17" transform="rotate(-90,380.5,551.5)"/><rect x="372" y="560" width="17" height="17" transform="rotate(0,380.5,568.5)"/><rect x="372" y="577" width="17" height="17" transform="rotate(0,380.5,585.5)"/><rect x="372" y="594" width="17" height="17" transform="rotate(0,380.5,602.5)"/><rect x="372" y="611" width="17" height="17" transform="rotate(0,380.5,619.5)"/><rect x="372" y="628" width="17" height="17" transform="rotate(0,380.5,636.5)"/><path d="M 389 305v 17h 8.5a 8.5 8.5, 0, 0, 0, 0 -17" transform="rotate(180,397.5,313.5)"/><circle cx="397.5" cy="347.5" r="8.5" transform="rotate(0,397.5,347.5)"/><path d="M 389 373v 17h 17a 17 17, 0, 0, 0, -17 -17" transform="rotate(-90,397.5,381.5)"/><rect x="389" y="390" width="17" height="17" transform="rotate(0,397.5,398.5)"/><rect x="389" y="407" width="17" height="17" transform="rotate(0,397.5,415.5)"/><rect x="389" y="424" width="17" height="17" transform="rotate(0,397.5,432.5)"/><path d="M 389 441v 17h 8.5a 8.5 8.5, 0, 0, 0, 0 -17" transform="rotate(90,397.5,449.5)"/><circle cx="397.5" cy="483.5" r="8.5" transform="rotate(0,397.5,483.5)"/><circle cx="397.5" cy="534.5" r="8.5" transform="rotate(0,397.5,534.5)"/><path d="M 389 560v 17h 17a 17 17, 0, 0, 0, -17 -17" transform="rotate(0,397.5,568.5)"/><path d="M 389 577v 17h 17a 17 17, 0, 0, 0, -17 -17" transform="rotate(90,397.5,585.5)"/><rect x="389" y="628" width="17" height="17" transform="rotate(0,397.5,636.5)"/><rect x="389" y="645" width="17" height="17" transform="rotate(0,397.5,653.5)"/><rect x="389" y="662" width="17" height="17" transform="rotate(0,397.5,670.5)"/><path d="M 389 679v 17h 8.5a 8.5 8.5, 0, 0, 0, 0 -17" transform="rotate(90,397.5,687.5)"/><path d="M 389 713v 17h 17a 17 17, 0, 0, 0, -17 -17" transform="rotate(-90,397.5,721.5)"/><path d="M 389 730v 17h 8.5a 8.5 8.5, 0, 0, 0, 0 -17" transform="rotate(90,397.5,738.5)"/><path d="M 389 764v 17h 8.5a 8.5 8.5, 0, 0, 0, 0 -17" transform="rotate(180,397.5,772.5)"/><path d="M 406 288v 17h 17a 17 17, 0, 0, 0, -17 -17" transform="rotate(-90,414.5,296.5)"/><path d="M 406 305v 17h 17a 17 17, 0, 0, 0, -17 -17" transform="rotate(90,414.5,313.5)"/><path d="M 406 356v 17h 17a 17 17, 0, 0, 0, -17 -17" transform="rotate(-90,414.5,364.5)"/><path d="M 406 373v 17h 17a 17 17, 0, 0, 0, -17 -17" transform="rotate(90,414.5,381.5)"/><path d="M 406 407v 17h 17a 17 17, 0, 0, 0, -17 -17" transform="rotate(0,414.5,415.5)"/><path d="M 406 424v 17h 17a 17 17, 0, 0, 0, -17 -17" transform="rotate(90,414.5,432.5)"/><circle cx="414.5" cy="466.5" r="8.5" transform="rotate(0,414.5,466.5)"/><path d="M 406 509v 17h 8.5a 8.5 8.5, 0, 0, 0, 0 -17" transform="rotate(180,414.5,517.5)"/><path d="M 406 543v 17h 8.5a 8.5 8.5, 0, 0, 0, 0 -17" transform="rotate(180,414.5,551.5)"/><path d="M 406 611v 17h 17a 17 17, 0, 0, 0, -17 -17" transform="rotate(-90,414.5,619.5)"/><rect x="406" y="628" width="17" height="17" transform="rotate(0,414.5,636.5)"/><rect x="406" y="645" width="17" height="17" transform="rotate(0,414.5,653.5)"/><rect x="406" y="662" width="17" height="17" transform="rotate(0,414.5,670.5)"/><path d="M 406 713v 17h 8.5a 8.5 8.5, 0, 0, 0, 0 -17" transform="rotate(0,414.5,721.5)"/><path d="M 406 764v 17h 8.5a 8.5 8.5, 0, 0, 0, 0 -17" transform="rotate(0,414.5,772.5)"/><path d="M 423 288v 17h 8.5a 8.5 8.5, 0, 0, 0, 0 -17" transform="rotate(0,431.5,296.5)"/><path d="M 423 339v 17h 8.5a 8.5 8.5, 0, 0, 0, 0 -17" transform="rotate(-90,431.5,347.5)"/><rect x="423" y="356" width="17" height="17" transform="rotate(0,431.5,364.5)"/><circle cx="431.5" cy="398.5" r="8.5" transform="rotate(0,431.5,398.5)"/><path d="M 423 441v 17h 8.5a 8.5 8.5, 0, 0, 0, 0 -17" transform="rotate(180,431.5,449.5)"/><path d="M 423 475v 17h 8.5a 8.5 8.5, 0, 0, 0, 0 -17" transform="rotate(-90,431.5,483.5)"/><rect x="423" y="492" width="17" height="17" transform="rotate(0,431.5,500.5)"/><rect x="423" y="509" width="17" height="17" transform="rotate(0,431.5,517.5)"/><rect x="423" y="526" width="17" height="17" transform="rotate(0,431.5,534.5)"/><rect x="423" y="543" width="17" height="17" transform="rotate(0,431.5,551.5)"/><rect x="423" y="560" width="17" height="17" transform="rotate(0,431.5,568.5)"/><path d="M 423 577v 17h 8.5a 8.5 8.5, 0, 0, 0, 0 -17" transform="rotate(90,431.5,585.5)"/><rect x="423" y="611" width="17" height="17" transform="rotate(0,431.5,619.5)"/><rect x="423" y="662" width="17" height="17" transform="rotate(0,431.5,670.5)"/><rect x="423" y="679" width="17" height="17" transform="rotate(0,431.5,687.5)"/><path d="M 423 696v 17h 17a 17 17, 0, 0, 0, -17 -17" transform="rotate(180,431.5,704.5)"/><path d="M 423 747v 17h 8.5a 8.5 8.5, 0, 0, 0, 0 -17" transform="rotate(180,431.5,755.5)"/><path d="M 440 305v 17h 8.5a 8.5 8.5, 0, 0, 0, 0 -17" transform="rotate(180,448.5,313.5)"/><path d="M 440 356v 17h 8.5a 8.5 8.5, 0, 0, 0, 0 -17" transform="rotate(0,448.5,364.5)"/><path d="M 440 407v 17h 8.5a 8.5 8.5, 0, 0, 0, 0 -17" transform="rotate(-90,448.5,415.5)"/><rect x="440" y="424" width="17" height="17" transform="rotate(0,448.5,432.5)"/><rect x="440" y="441" width="17" height="17" transform="rotate(0,448.5,449.5)"/><path d="M 440 543v 17h 17a 17 17, 0, 0, 0, -17 -17" transform="rotate(0,448.5,551.5)"/><rect x="440" y="560" width="17" height="17" transform="rotate(0,448.5,568.5)"/><rect x="440" y="611" width="17" height="17" transform="rotate(0,448.5,619.5)"/><rect x="440" y="628" width="17" height="17" transform="rotate(0,448.5,636.5)"/><rect x="440" y="645" width="17" height="17" transform="rotate(0,448.5,653.5)"/><rect x="440" y="662" width="17" height="17" transform="rotate(0,448.5,670.5)"/><path d="M 440 696v 17h 8.5a 8.5 8.5, 0, 0, 0, 0 -17" transform="rotate(0,448.5,704.5)"/><path d="M 440 730v 17h 8.5a 8.5 8.5, 0, 0, 0, 0 -17" transform="rotate(-90,448.5,738.5)"/><path d="M 440 747v 17h 17a 17 17, 0, 0, 0, -17 -17" transform="rotate(90,448.5,755.5)"/><path d="M 457 288v 17h 8.5a 8.5 8.5, 0, 0, 0, 0 -17" transform="rotate(-90,465.5,296.5)"/><rect x="457" y="305" width="17" height="17" transform="rotate(0,465.5,313.5)"/><rect x="457" y="322" width="17" height="17" transform="rotate(0,465.5,330.5)"/><path d="M 457 339v 17h 8.5a 8.5 8.5, 0, 0, 0, 0 -17" transform="rotate(90,465.5,347.5)"/><circle cx="465.5" cy="398.5" r="8.5" transform="rotate(0,465.5,398.5)"/><path d="M 457 441v 17h 8.5a 8.5 8.5, 0, 0, 0, 0 -17" transform="rotate(0,465.5,449.5)"/><path d="M 457 492v 17h 8.5a 8.5 8.5, 0, 0, 0, 0 -17" transform="rotate(-90,465.5,500.5)"/><path d="M 457 509v 17h 8.5a 8.5 8.5, 0, 0, 0, 0 -17" transform="rotate(90,465.5,517.5)"/><rect x="457" y="560" width="17" height="17" transform="rotate(0,465.5,568.5)"/><path d="M 457 577v 17h 17a 17 17, 0, 0, 0, -17 -17" transform="rotate(180,465.5,585.5)"/><rect x="457" y="611" width="17" height="17" transform="rotate(0,465.5,619.5)"/><path d="M 457 662v 17h 17a 17 17, 0, 0, 0, -17 -17" transform="rotate(0,465.5,670.5)"/><path d="M 457 679v 17h 17a 17 17, 0, 0, 0, -17 -17" transform="rotate(180,465.5,687.5)"/><path d="M 474 305v 17h 8.5a 8.5 8.5, 0, 0, 0, 0 -17" transform="rotate(0,482.5,313.5)"/><circle cx="482.5" cy="364.5" r="8.5" transform="rotate(0,482.5,364.5)"/><path d="M 474 407v 17h 8.5a 8.5 8.5, 0, 0, 0, 0 -17" transform="rotate(-90,482.5,415.5)"/><path d="M 474 424v 17h 17a 17 17, 0, 0, 0, -17 -17" transform="rotate(180,482.5,432.5)"/><path d="M 474 458v 17h 17a 17 17, 0, 0, 0, -17 -17" transform="rotate(-90,482.5,466.5)"/><path d="M 474 475v 17h 8.5a 8.5 8.5, 0, 0, 0, 0 -17" transform="rotate(90,482.5,483.5)"/><path d="M 474 543v 17h 8.5a 8.5 8.5, 0, 0, 0, 0 -17" transform="rotate(-90,482.5,551.5)"/><rect x="474" y="560" width="17" height="17" transform="rotate(0,482.5,568.5)"/><rect x="474" y="577" width="17" height="17" transform="rotate(0,482.5,585.5)"/><rect x="474" y="594" width="17" height="17" transform="rotate(0,482.5,602.5)"/><rect x="474" y="611" width="17" height="17" transform="rotate(0,482.5,619.5)"/><rect x="474" y="628" width="17" height="17" transform="rotate(0,482.5,636.5)"/><path d="M 474 645v 17h 17a 17 17, 0, 0, 0, -17 -17" transform="rotate(180,482.5,653.5)"/><path d="M 474 679v 17h 8.5a 8.5 8.5, 0, 0, 0, 0 -17" transform="rotate(0,482.5,687.5)"/><circle cx="482.5" cy="721.5" r="8.5" transform="rotate(0,482.5,721.5)"/><path d="M 474 747v 17h 8.5a 8.5 8.5, 0, 0, 0, 0 -17" transform="rotate(180,482.5,755.5)"/><path d="M 491 288v 17h 8.5a 8.5 8.5, 0, 0, 0, 0 -17" transform="rotate(180,499.5,296.5)"/><circle cx="499.5" cy="398.5" r="8.5" transform="rotate(0,499.5,398.5)"/><path d="M 491 424v 17h 17a 17 17, 0, 0, 0, -17 -17" transform="rotate(0,499.5,432.5)"/><rect x="491" y="441" width="17" height="17" transform="rotate(0,499.5,449.5)"/><path d="M 491 458v 17h 17a 17 17, 0, 0, 0, -17 -17" transform="rotate(90,499.5,466.5)"/><path d="M 491 492v 17h 8.5a 8.5 8.5, 0, 0, 0, 0 -17" transform="rotate(-90,499.5,500.5)"/><rect x="491" y="509" width="17" height="17" transform="rotate(0,499.5,517.5)"/><path d="M 491 526v 17h 8.5a 8.5 8.5, 0, 0, 0, 0 -17" transform="rotate(90,499.5,534.5)"/><rect x="491" y="594" width="17" height="17" transform="rotate(0,499.5,602.5)"/><rect x="491" y="628" width="17" height="17" transform="rotate(0,499.5,636.5)"/><rect x="491" y="645" width="17" height="17" transform="rotate(0,499.5,653.5)"/><rect x="491" y="747" width="17" height="17" transform="rotate(0,499.5,755.5)"/><path d="M 491 764v 17h 17a 17 17, 0, 0, 0, -17 -17" transform="rotate(180,499.5,772.5)"/><path d="M 508 288v 17h 17a 17 17, 0, 0, 0, -17 -17" transform="rotate(0,516.5,296.5)"/><path d="M 508 305v 17h 8.5a 8.5 8.5, 0, 0, 0, 0 -17" transform="rotate(90,516.5,313.5)"/><path d="M 508 407v 17h 8.5a 8.5 8.5, 0, 0, 0, 0 -17" transform="rotate(180,516.5,415.5)"/><path d="M 508 441v 17h 8.5a 8.5 8.5, 0, 0, 0, 0 -17" transform="rotate(0,516.5,449.5)"/><path d="M 508 543v 17h 8.5a 8.5 8.5, 0, 0, 0, 0 -17" transform="rotate(-90,516.5,551.5)"/><rect x="508" y="560" width="17" height="17" transform="rotate(0,516.5,568.5)"/><rect x="508" y="577" width="17" height="17" transform="rotate(0,516.5,585.5)"/><path d="M 508 594v 17h 17a 17 17, 0, 0, 0, -17 -17" transform="rotate(90,516.5,602.5)"/><rect x="508" y="628" width="17" height="17" transform="rotate(0,516.5,636.5)"/><path d="M 508 645v 17h 17a 17 17, 0, 0, 0, -17 -17" transform="rotate(90,516.5,653.5)"/><circle cx="516.5" cy="687.5" r="8.5" transform="rotate(0,516.5,687.5)"/><rect x="508" y="747" width="17" height="17" transform="rotate(0,516.5,755.5)"/><rect x="508" y="764" width="17" height="17" transform="rotate(0,516.5,772.5)"/><path d="M 525 322v 17h 17a 17 17, 0, 0, 0, -17 -17" transform="rotate(-90,533.5,330.5)"/><rect x="525" y="339" width="17" height="17" transform="rotate(0,533.5,347.5)"/><path d="M 525 356v 17h 8.5a 8.5 8.5, 0, 0, 0, 0 -17" transform="rotate(90,533.5,364.5)"/><path d="M 525 390v 17h 8.5a 8.5 8.5, 0, 0, 0, 0 -17" transform="rotate(-90,533.5,398.5)"/><path d="M 525 407v 17h 17a 17 17, 0, 0, 0, -17 -17" transform="rotate(90,533.5,415.5)"/><circle cx="533.5" cy="466.5" r="8.5" transform="rotate(0,533.5,466.5)"/><path d="M 525 492v 17h 8.5a 8.5 8.5, 0, 0, 0, 0 -17" transform="rotate(180,533.5,500.5)"/><circle cx="533.5" cy="534.5" r="8.5" transform="rotate(0,533.5,534.5)"/><path d="M 525 577v 17h 8.5a 8.5 8.5, 0, 0, 0, 0 -17" transform="rotate(0,533.5,585.5)"/><path d="M 525 611v 17h 17a 17 17, 0, 0, 0, -17 -17" transform="rotate(-90,533.5,619.5)"/><path d="M 525 628v 17h 17a 17 17, 0, 0, 0, -17 -17" transform="rotate(90,533.5,636.5)"/><circle cx="533.5" cy="704.5" r="8.5" transform="rotate(0,533.5,704.5)"/><rect x="525" y="747" width="17" height="17" transform="rotate(0,533.5,755.5)"/><rect x="525" y="764" width="17" height="17" transform="rotate(0,533.5,772.5)"/><rect x="542" y="322" width="17" height="17" transform="rotate(0,550.5,330.5)"/><rect x="542" y="339" width="17" height="17" transform="rotate(0,550.5,347.5)"/><circle cx="550.5" cy="432.5" r="8.5" transform="rotate(0,550.5,432.5)"/><path d="M 542 475v 17h 8.5a 8.5 8.5, 0, 0, 0, 0 -17" transform="rotate(-90,550.5,483.5)"/><rect x="542" y="492" width="17" height="17" transform="rotate(0,550.5,500.5)"/><path d="M 542 509v 17h 17a 17 17, 0, 0, 0, -17 -17" transform="rotate(180,550.5,517.5)"/><path d="M 542 543v 17h 17a 17 17, 0, 0, 0, -17 -17" transform="rotate(-90,550.5,551.5)"/><path d="M 542 560v 17h 17a 17 17, 0, 0, 0, -17 -17" transform="rotate(180,550.5,568.5)"/><path d="M 542 611v 17h 8.5a 8.5 8.5, 0, 0, 0, 0 -17" transform="rotate(0,550.5,619.5)"/><path d="M 542 662v 17h 8.5a 8.5 8.5, 0, 0, 0, 0 -17" transform="rotate(-90,550.5,670.5)"/><path d="M 542 679v 17h 17a 17 17, 0, 0, 0, -17 -17" transform="rotate(180,550.5,687.5)"/><rect x="542" y="747" width="17" height="17" transform="rotate(0,550.5,755.5)"/><rect x="542" y="764" width="17" height="17" transform="rotate(0,550.5,772.5)"/><circle cx="567.5" cy="296.5" r="8.5" transform="rotate(0,567.5,296.5)"/><path d="M 559 322v 17h 17a 17 17, 0, 0, 0, -17 -17" transform="rotate(0,567.5,330.5)"/><rect x="559" y="339" width="17" height="17" transform="rotate(0,567.5,347.5)"/><rect x="559" y="356" width="17" height="17" transform="rotate(0,567.5,364.5)"/><rect x="559" y="373" width="17" height="17" transform="rotate(0,567.5,381.5)"/><rect x="559" y="390" width="17" height="17" transform="rotate(0,567.5,398.5)"/><path d="M 559 407v 17h 17a 17 17, 0, 0, 0, -17 -17" transform="rotate(180,567.5,415.5)"/><path d="M 559 509v 17h 17a 17 17, 0, 0, 0, -17 -17" transform="rotate(0,567.5,517.5)"/><rect x="559" y="526" width="17" height="17" transform="rotate(0,567.5,534.5)"/><rect x="559" y="543" width="17" height="17" transform="rotate(0,567.5,551.5)"/><path d="M 559 560v 17h 17a 17 17, 0, 0, 0, -17 -17" transform="rotate(90,567.5,568.5)"/><path d="M 559 594v 17h 8.5a 8.5 8.5, 0, 0, 0, 0 -17" transform="rotate(180,567.5,602.5)"/><circle cx="567.5" cy="653.5" r="8.5" transform="rotate(0,567.5,653.5)"/><path d="M 559 679v 17h 8.5a 8.5 8.5, 0, 0, 0, 0 -17" transform="rotate(0,567.5,687.5)"/><path d="M 559 713v 17h 8.5a 8.5 8.5, 0, 0, 0, 0 -17" transform="rotate(180,567.5,721.5)"/><path d="M 559 747v 17h 17a 17 17, 0, 0, 0, -17 -17" transform="rotate(0,567.5,755.5)"/><path d="M 559 764v 17h 17a 17 17, 0, 0, 0, -17 -17" transform="rotate(90,567.5,772.5)"/><path d="M 576 356v 17h 8.5a 8.5 8.5, 0, 0, 0, 0 -17" transform="rotate(0,584.5,364.5)"/><path d="M 576 407v 17h 8.5a 8.5 8.5, 0, 0, 0, 0 -17" transform="rotate(0,584.5,415.5)"/><path d="M 576 441v 17h 17a 17 17, 0, 0, 0, -17 -17" transform="rotate(-90,584.5,449.5)"/><rect x="576" y="458" width="17" height="17" transform="rotate(0,584.5,466.5)"/><path d="M 576 475v 17h 17a 17 17, 0, 0, 0, -17 -17" transform="rotate(180,584.5,483.5)"/><path d="M 576 577v 17h 8.5a 8.5 8.5, 0, 0, 0, 0 -17" transform="rotate(-90,584.5,585.5)"/><path d="M 576 594v 17h 17a 17 17, 0, 0, 0, -17 -17" transform="rotate(90,584.5,602.5)"/><path d="M 576 696v 17h 17a 17 17, 0, 0, 0, -17 -17" transform="rotate(-90,584.5,704.5)"/><path d="M 576 713v 17h 17a 17 17, 0, 0, 0, -17 -17" transform="rotate(90,584.5,721.5)"/><circle cx="601.5" cy="296.5" r="8.5" transform="rotate(0,601.5,296.5)"/><circle cx="601.5" cy="347.5" r="8.5" transform="rotate(0,601.5,347.5)"/><path d="M 593 373v 17h 8.5a 8.5 8.5, 0, 0, 0, 0 -17" transform="rotate(-90,601.5,381.5)"/><path d="M 593 390v 17h 8.5a 8.5 8.5, 0, 0, 0, 0 -17" transform="rotate(90,601.5,398.5)"/><rect x="593" y="441" width="17" height="17" transform="rotate(0,601.5,449.5)"/><rect x="593" y="475" width="17" height="17" transform="rotate(0,601.5,483.5)"/><path d="M 593 492v 17h 8.5a 8.5 8.5, 0, 0, 0, 0 -17" transform="rotate(90,601.5,500.5)"/><path d="M 593 526v 17h 17a 17 17, 0, 0, 0, -17 -17" transform="rotate(-90,601.5,534.5)"/><path d="M 593 543v 17h 8.5a 8.5 8.5, 0, 0, 0, 0 -17" transform="rotate(90,601.5,551.5)"/><path d="M 593 628v 17h 17a 17 17, 0, 0, 0, -17 -17" transform="rotate(-90,601.5,636.5)"/><rect x="593" y="645" width="17" height="17" transform="rotate(0,601.5,653.5)"/><rect x="593" y="662" width="17" height="17" transform="rotate(0,601.5,670.5)"/><rect x="593" y="679" width="17" height="17" transform="rotate(0,601.5,687.5)"/><rect x="593" y="696" width="17" height="17" transform="rotate(0,601.5,704.5)"/><path d="M 593 730v 17h 8.5a 8.5 8.5, 0, 0, 0, 0 -17" transform="rotate(-90,601.5,738.5)"/><path d="M 593 747v 17h 17a 17 17, 0, 0, 0, -17 -17" transform="rotate(180,601.5,755.5)"/><path d="M 610 424v 17h 17a 17 17, 0, 0, 0, -17 -17" transform="rotate(-90,618.5,432.5)"/><path d="M 610 441v 17h 17a 17 17, 0, 0, 0, -17 -17" transform="rotate(90,618.5,449.5)"/><rect x="610" y="475" width="17" height="17" transform="rotate(0,618.5,483.5)"/><path d="M 610 526v 17h 8.5a 8.5 8.5, 0, 0, 0, 0 -17" transform="rotate(0,618.5,534.5)"/><path d="M 610 560v 17h 8.5a 8.5 8.5, 0, 0, 0, 0 -17" transform="rotate(-90,618.5,568.5)"/><rect x="610" y="577" width="17" height="17" transform="rotate(0,618.5,585.5)"/><path d="M 610 594v 17h 8.5a 8.5 8.5, 0, 0, 0, 0 -17" transform="rotate(90,618.5,602.5)"/><rect x="610" y="628" width="17" height="17" transform="rotate(0,618.5,636.5)"/><rect x="610" y="696" width="17" height="17" transform="rotate(0,618.5,704.5)"/><path d="M 610 747v 17h 17a 17 17, 0, 0, 0, -17 -17" transform="rotate(0,618.5,755.5)"/><path d="M 610 764v 17h 8.5a 8.5 8.5, 0, 0, 0, 0 -17" transform="rotate(90,618.5,772.5)"/><rect x="627" y="424" width="17" height="17" transform="rotate(0,635.5,432.5)"/><rect x="627" y="475" width="17" height="17" transform="rotate(0,635.5,483.5)"/><path d="M 627 492v 17h 8.5a 8.5 8.5, 0, 0, 0, 0 -17" transform="rotate(90,635.5,500.5)"/><path d="M 627 577v 17h 8.5a 8.5 8.5, 0, 0, 0, 0 -17" transform="rotate(0,635.5,585.5)"/><rect x="627" y="628" width="17" height="17" transform="rotate(0,635.5,636.5)"/><circle cx="635.5" cy="670.5" r="8.5" transform="rotate(0,635.5,670.5)"/><rect x="627" y="696" width="17" height="17" transform="rotate(0,635.5,704.5)"/><rect x="627" y="713" width="17" height="17" transform="rotate(0,635.5,721.5)"/><path d="M 627 730v 17h 17a 17 17, 0, 0, 0, -17 -17" transform="rotate(180,635.5,738.5)"/><path d="M 644 424v 17h 8.5a 8.5 8.5, 0, 0, 0, 0 -17" transform="rotate(0,652.5,432.5)"/><path d="M 644 458v 17h 17a 17 17, 0, 0, 0, -17 -17" transform="rotate(-90,652.5,466.5)"/><path d="M 644 475v 17h 17a 17 17, 0, 0, 0, -17 -17" transform="rotate(90,652.5,483.5)"/><path d="M 644 509v 17h 8.5a 8.5 8.5, 0, 0, 0, 0 -17" transform="rotate(-90,652.5,517.5)"/><path d="M 644 526v 17h 8.5a 8.5 8.5, 0, 0, 0, 0 -17" transform="rotate(90,652.5,534.5)"/><path d="M 644 560v 17h 8.5a 8.5 8.5, 0, 0, 0, 0 -17" transform="rotate(180,652.5,568.5)"/><circle cx="652.5" cy="602.5" r="8.5" transform="rotate(0,652.5,602.5)"/><rect x="644" y="628" width="17" height="17" transform="rotate(0,652.5,636.5)"/><rect x="644" y="696" width="17" height="17" transform="rotate(0,652.5,704.5)"/><path d="M 644 730v 17h 8.5a 8.5 8.5, 0, 0, 0, 0 -17" transform="rotate(0,652.5,738.5)"/><rect x="661" y="458" width="17" height="17" transform="rotate(0,669.5,466.5)"/><rect x="661" y="560" width="17" height="17" transform="rotate(0,669.5,568.5)"/><path d="M 661 577v 17h 17a 17 17, 0, 0, 0, -17 -17" transform="rotate(180,669.5,585.5)"/><rect x="661" y="628" width="17" height="17" transform="rotate(0,669.5,636.5)"/><rect x="661" y="645" width="17" height="17" transform="rotate(0,669.5,653.5)"/><rect x="661" y="662" width="17" height="17" transform="rotate(0,669.5,670.5)"/><rect x="661" y="679" width="17" height="17" transform="rotate(0,669.5,687.5)"/><rect x="661" y="696" width="17" height="17" transform="rotate(0,669.5,704.5)"/><path d="M 661 713v 17h 17a 17 17, 0, 0, 0, -17 -17" transform="rotate(180,669.5,721.5)"/><circle cx="686.5" cy="432.5" r="8.5" transform="rotate(0,686.5,432.5)"/><rect x="678" y="458" width="17" height="17" transform="rotate(0,686.5,466.5)"/><rect x="678" y="475" width="17" height="17" transform="rotate(0,686.5,483.5)"/><rect x="678" y="492" width="17" height="17" transform="rotate(0,686.5,500.5)"/><rect x="678" y="509" width="17" height="17" transform="rotate(0,686.5,517.5)"/><rect x="678" y="526" width="17" height="17" transform="rotate(0,686.5,534.5)"/><rect x="678" y="543" width="17" height="17" transform="rotate(0,686.5,551.5)"/><rect x="678" y="560" width="17" height="17" transform="rotate(0,686.5,568.5)"/><path d="M 678 577v 17h 17a 17 17, 0, 0, 0, -17 -17" transform="rotate(90,686.5,585.5)"/><path d="M 678 611v 17h 17a 17 17, 0, 0, 0, -17 -17" transform="rotate(-90,686.5,619.5)"/><rect x="678" y="628" width="17" height="17" transform="rotate(0,686.5,636.5)"/><rect x="678" y="645" width="17" height="17" transform="rotate(0,686.5,653.5)"/><path d="M 678 662v 17h 17a 17 17, 0, 0, 0, -17 -17" transform="rotate(90,686.5,670.5)"/><rect x="678" y="696" width="17" height="17" transform="rotate(0,686.5,704.5)"/><rect x="678" y="713" width="17" height="17" transform="rotate(0,686.5,721.5)"/><path d="M 678 730v 17h 8.5a 8.5 8.5, 0, 0, 0, 0 -17" transform="rotate(90,686.5,738.5)"/><path d="M 678 764v 17h 8.5a 8.5 8.5, 0, 0, 0, 0 -17" transform="rotate(180,686.5,772.5)"/><path d="M 695 441v 17h 17a 17 17, 0, 0, 0, -17 -17" transform="rotate(-90,703.5,449.5)"/><rect x="695" y="458" width="17" height="17" transform="rotate(0,703.5,466.5)"/><rect x="695" y="475" width="17" height="17" transform="rotate(0,703.5,483.5)"/><rect x="695" y="492" width="17" height="17" transform="rotate(0,703.5,500.5)"/><path d="M 695 560v 17h 8.5a 8.5 8.5, 0, 0, 0, 0 -17" transform="rotate(0,703.5,568.5)"/><path d="M 695 594v 17h 8.5a 8.5 8.5, 0, 0, 0, 0 -17" transform="rotate(-90,703.5,602.5)"/><rect x="695" y="611" width="17" height="17" transform="rotate(0,703.5,619.5)"/><path d="M 695 628v 17h 17a 17 17, 0, 0, 0, -17 -17" transform="rotate(90,703.5,636.5)"/><path d="M 695 696v 17h 17a 17 17, 0, 0, 0, -17 -17" transform="rotate(0,703.5,704.5)"/><rect x="695" y="713" width="17" height="17" transform="rotate(0,703.5,721.5)"/><path d="M 695 764v 17h 8.5a 8.5 8.5, 0, 0, 0, 0 -17" transform="rotate(0,703.5,772.5)"/><path d="M 712 424v 17h 8.5a 8.5 8.5, 0, 0, 0, 0 -17" transform="rotate(-90,720.5,432.5)"/><rect x="712" y="441" width="17" height="17" transform="rotate(0,720.5,449.5)"/><rect x="712" y="458" width="17" height="17" transform="rotate(0,720.5,466.5)"/><rect x="712" y="475" width="17" height="17" transform="rotate(0,720.5,483.5)"/><path d="M 712 492v 17h 17a 17 17, 0, 0, 0, -17 -17" transform="rotate(90,720.5,500.5)"/><path d="M 712 543v 17h 8.5a 8.5 8.5, 0, 0, 0, 0 -17" transform="rotate(180,720.5,551.5)"/><path d="M 712 577v 17h 8.5a 8.5 8.5, 0, 0, 0, 0 -17" transform="rotate(180,720.5,585.5)"/><path d="M 712 645v 17h 8.5a 8.5 8.5, 0, 0, 0, 0 -17" transform="rotate(180,720.5,653.5)"/><circle cx="720.5" cy="687.5" r="8.5" transform="rotate(0,720.5,687.5)"/><rect x="712" y="713" width="17" height="17" transform="rotate(0,720.5,721.5)"/><path d="M 712 747v 17h 8.5a 8.5 8.5, 0, 0, 0, 0 -17" transform="rotate(180,720.5,755.5)"/><path d="M 729 441v 17h 17a 17 17, 0, 0, 0, -17 -17" transform="rotate(0,737.5,449.5)"/><rect x="729" y="458" width="17" height="17" transform="rotate(0,737.5,466.5)"/><path d="M 729 475v 17h 17a 17 17, 0, 0, 0, -17 -17" transform="rotate(90,737.5,483.5)"/><circle cx="737.5" cy="517.5" r="8.5" transform="rotate(0,737.5,517.5)"/><path d="M 729 543v 17h 8.5a 8.5 8.5, 0, 0, 0, 0 -17" transform="rotate(0,737.5,551.5)"/><path d="M 729 577v 17h 8.5a 8.5 8.5, 0, 0, 0, 0 -17" transform="rotate(0,737.5,585.5)"/><path d="M 729 628v 17h 8.5a 8.5 8.5, 0, 0, 0, 0 -17" transform="rotate(-90,737.5,636.5)"/><rect x="729" y="645" width="17" height="17" transform="rotate(0,737.5,653.5)"/><path d="M 729 662v 17h 8.5a 8.5 8.5, 0, 0, 0, 0 -17" transform="rotate(90,737.5,670.5)"/><path d="M 729 696v 17h 8.5a 8.5 8.5, 0, 0, 0, 0 -17" transform="rotate(-90,737.5,704.5)"/><path d="M 729 713v 17h 17a 17 17, 0, 0, 0, -17 -17" transform="rotate(90,737.5,721.5)"/><path d="M 729 747v 17h 8.5a 8.5 8.5, 0, 0, 0, 0 -17" transform="rotate(0,737.5,755.5)"/></clipPath><clipPath id="clip-path-corners-square-color-0-0"><path d="M 253 288v 17h 17a 17 17, 0, 0, 0, -17 -17" transform="rotate(-90,261.5,296.5)"/><rect x="253" y="305" width="17" height="17" transform="rotate(0,261.5,313.5)"/><rect x="253" y="322" width="17" height="17" transform="rotate(0,261.5,330.5)"/><rect x="253" y="339" width="17" height="17" transform="rotate(0,261.5,347.5)"/><rect x="253" y="356" width="17" height="17" transform="rotate(0,261.5,364.5)"/><rect x="253" y="373" width="17" height="17" transform="rotate(0,261.5,381.5)"/><path d="M 253 390v 17h 17a 17 17, 0, 0, 0, -17 -17" transform="rotate(180,261.5,398.5)"/><rect x="270" y="288" width="17" height="17" transform="rotate(0,278.5,296.5)"/><rect x="270" y="390" width="17" height="17" transform="rotate(0,278.5,398.5)"/><rect x="287" y="288" width="17" height="17" transform="rotate(0,295.5,296.5)"/><rect x="287" y="390" width="17" height="17" transform="rotate(0,295.5,398.5)"/><rect x="304" y="288" width="17" height="17" transform="rotate(0,312.5,296.5)"/><rect x="304" y="390" width="17" height="17" transform="rotate(0,312.5,398.5)"/><rect x="321" y="288" width="17" height="17" transform="rotate(0,329.5,296.5)"/><rect x="321" y="390" width="17" height="17" transform="rotate(0,329.5,398.5)"/><rect x="338" y="288" width="17" height="17" transform="rotate(0,346.5,296.5)"/><rect x="338" y="390" width="17" height="17" transform="rotate(0,346.5,398.5)"/><path d="M 355 288v 17h 17a 17 17, 0, 0, 0, -17 -17" transform="rotate(0,363.5,296.5)"/><rect x="355" y="305" width="17" height="17" transform="rotate(0,363.5,313.5)"/><rect x="355" y="322" width="17" height="17" transform="rotate(0,363.5,330.5)"/><rect x="355" y="339" width="17" height="17" transform="rotate(0,363.5,347.5)"/><rect x="355" y="356" width="17" height="17" transform="rotate(0,363.5,364.5)"/><rect x="355" y="373" width="17" height="17" transform="rotate(0,363.5,381.5)"/><path d="M 355 390v 17h 17a 17 17, 0, 0, 0, -17 -17" transform="rotate(90,363.5,398.5)"/></clipPath><clipPath id="clip-path-corners-dot-color-0-0"><path d="M 287 322v 17h 17a 17 17, 0, 0, 0, -17 -17" transform="rotate(-90,295.5,330.5)"/><rect x="287" y="339" width="17" height="17" transform="rotate(0,295.5,347.5)"/><path d="M 287 356v 17h 17a 17 17, 0, 0, 0, -17 -17" transform="rotate(180,295.5,364.5)"/><rect x="304" y="322" width="17" height="17" transform="rotate(0,312.5,330.5)"/><rect x="304" y="339" width="17" height="17" transform="rotate(0,312.5,347.5)"/><rect x="304" y="356" width="17" height="17" transform="rotate(0,312.5,364.5)"/><path d="M 321 322v 17h 17a 17 17, 0, 0, 0, -17 -17" transform="rotate(0,329.5,330.5)"/><rect x="321" y="339" width="17" height="17" transform="rotate(0,329.5,347.5)"/><path d="M 321 356v 17h 17a 17 17, 0, 0, 0, -17 -17" transform="rotate(90,329.5,364.5)"/></clipPath><clipPath id="clip-path-corners-square-color-1-0"><path d="M 627 288v 17h 17a 17 17, 0, 0, 0, -17 -17" transform="rotate(-90,635.5,296.5)"/><rect x="627" y="305" width="17" height="17" transform="rotate(0,635.5,313.5)"/><rect x="627" y="322" width="17" height="17" transform="rotate(0,635.5,330.5)"/><rect x="627" y="339" width="17" height="17" transform="rotate(0,635.5,347.5)"/><rect x="627" y="356" width="17" height="17" transform="rotate(0,635.5,364.5)"/><rect x="627" y="373" width="17" height="17" transform="rotate(0,635.5,381.5)"/><path d="M 627 390v 17h 17a 17 17, 0, 0, 0, -17 -17" transform="rotate(180,635.5,398.5)"/><rect x="644" y="288" width="17" height="17" transform="rotate(0,652.5,296.5)"/><rect x="644" y="390" width="17" height="17" transform="rotate(0,652.5,398.5)"/><rect x="661" y="288" width="17" height="17" transform="rotate(0,669.5,296.5)"/><rect x="661" y="390" width="17" height="17" transform="rotate(0,669.5,398.5)"/><rect x="678" y="288" width="17" height="17" transform="rotate(0,686.5,296.5)"/><rect x="678" y="390" width="17" height="17" transform="rotate(0,686.5,398.5)"/><rect x="695" y="288" width="17" height="17" transform="rotate(0,703.5,296.5)"/><rect x="695" y="390" width="17" height="17" transform="rotate(0,703.5,398.5)"/><rect x="712" y="288" width="17" height="17" transform="rotate(0,720.5,296.5)"/><rect x="712" y="390" width="17" height="17" transform="rotate(0,720.5,398.5)"/><path d="M 729 288v 17h 17a 17 17, 0, 0, 0, -17 -17" transform="rotate(0,737.5,296.5)"/><rect x="729" y="305" width="17" height="17" transform="rotate(0,737.5,313.5)"/><rect x="729" y="322" width="17" height="17" transform="rotate(0,737.5,330.5)"/><rect x="729" y="339" width="17" height="17" transform="rotate(0,737.5,347.5)"/><rect x="729" y="356" width="17" height="17" transform="rotate(0,737.5,364.5)"/><rect x="729" y="373" width="17" height="17" transform="rotate(0,737.5,381.5)"/><path d="M 729 390v 17h 17a 17 17, 0, 0, 0, -17 -17" transform="rotate(90,737.5,398.5)"/></clipPath><clipPath id="clip-path-corners-dot-color-1-0"><path d="M 661 322v 17h 17a 17 17, 0, 0, 0, -17 -17" transform="rotate(-90,669.5,330.5)"/><rect x="661" y="339" width="17" height="17" transform="rotate(0,669.5,347.5)"/><path d="M 661 356v 17h 17a 17 17, 0, 0, 0, -17 -17" transform="rotate(180,669.5,364.5)"/><rect x="678" y="322" width="17" height="17" transform="rotate(0,686.5,330.5)"/><rect x="678" y="339" width="17" height="17" transform="rotate(0,686.5,347.5)"/><rect x="678" y="356" width="17" height="17" transform="rotate(0,686.5,364.5)"/><path d="M 695 322v 17h 17a 17 17, 0, 0, 0, -17 -17" transform="rotate(0,703.5,330.5)"/><rect x="695" y="339" width="17" height="17" transform="rotate(0,703.5,347.5)"/><path d="M 695 356v 17h 17a 17 17, 0, 0, 0, -17 -17" transform="rotate(90,703.5,364.5)"/></clipPath><clipPath id="clip-path-corners-square-color-0-1"><path d="M 253 662v 17h 17a 17 17, 0, 0, 0, -17 -17" transform="rotate(-90,261.5,670.5)"/><rect x="253" y="679" width="17" height="17" transform="rotate(0,261.5,687.5)"/><rect x="253" y="696" width="17" height="17" transform="rotate(0,261.5,704.5)"/><rect x="253" y="713" width="17" height="17" transform="rotate(0,261.5,721.5)"/><rect x="253" y="730" width="17" height="17" transform="rotate(0,261.5,738.5)"/><rect x="253" y="747" width="17" height="17" transform="rotate(0,261.5,755.5)"/><path d="M 253 764v 17h 17a 17 17, 0, 0, 0, -17 -17" transform="rotate(180,261.5,772.5)"/><rect x="270" y="662" width="17" height="17" transform="rotate(0,278.5,670.5)"/><rect x="270" y="764" width="17" height="17" transform="rotate(0,278.5,772.5)"/><rect x="287" y="662" width="17" height="17" transform="rotate(0,295.5,670.5)"/><rect x="287" y="764" width="17" height="17" transform="rotate(0,295.5,772.5)"/><rect x="304" y="662" width="17" height="17" transform="rotate(0,312.5,670.5)"/><rect x="304" y="764" width="17" height="17" transform="rotate(0,312.5,772.5)"/><rect x="321" y="662" width="17" height="17" transform="rotate(0,329.5,670.5)"/><rect x="321" y="764" width="17" height="17" transform="rotate(0,329.5,772.5)"/><rect x="338" y="662" width="17" height="17" transform="rotate(0,346.5,670.5)"/><rect x="338" y="764" width="17" height="17" transform="rotate(0,346.5,772.5)"/><path d="M 355 662v 17h 17a 17 17, 0, 0, 0, -17 -17" transform="rotate(0,363.5,670.5)"/><rect x="355" y="679" width="17" height="17" transform="rotate(0,363.5,687.5)"/><rect x="355" y="696" width="17" height="17" transform="rotate(0,363.5,704.5)"/><rect x="355" y="713" width="17" height="17" transform="rotate(0,363.5,721.5)"/><rect x="355" y="730" width="17" height="17" transform="rotate(0,363.5,738.5)"/><rect x="355" y="747" width="17" height="17" transform="rotate(0,363.5,755.5)"/><path d="M 355 764v 17h 17a 17 17, 0, 0, 0, -17 -17" transform="rotate(90,363.5,772.5)"/></clipPath><clipPath id="clip-path-corners-dot-color-0-1"><path d="M 287 696v 17h 17a 17 17, 0, 0, 0, -17 -17" transform="rotate(-90,295.5,704.5)"/><rect x="287" y="713" width="17" height="17" transform="rotate(0,295.5,721.5)"/><path d="M 287 730v 17h 17a 17 17, 0, 0, 0, -17 -17" transform="rotate(180,295.5,738.5)"/><rect x="304" y="696" width="17" height="17" transform="rotate(0,312.5,704.5)"/><rect x="304" y="713" width="17" height="17" transform="rotate(0,312.5,721.5)"/><rect x="304" y="730" width="17" height="17" transform="rotate(0,312.5,738.5)"/><path d="M 321 696v 17h 17a 17 17, 0, 0, 0, -17 -17" transform="rotate(0,329.5,704.5)"/><rect x="321" y="713" width="17" height="17" transform="rotate(0,329.5,721.5)"/><path d="M 321 730v 17h 17a 17 17, 0, 0, 0, -17 -17" transform="rotate(90,329.5,738.5)"/></clipPath></defs><defs/><path fill="#000000" d="M805.5,212.31c5.51,0,10,4.49,10,10v621h-631v-621c0-5.51,4.49-10,10-10H805.5 M805.5,182.31h-611 c-22.09,0-40,17.91-40,40v651h691v-651C845.5,200.22,827.59,182.31,805.5,182.31L805.5,182.31z"/>
			<path fill="#595959" d="M940.5,870h-881c-7.46,0-13.5-6.04-13.5-13.5l0,0c0-7.46,6.04-13.5,13.5-13.5h881c7.46,0,13.5,6.04,13.5,13.5 l0,0C954,863.96,947.96,870,940.5,870z"/>
			<path fill="#000000" d="M809,962H191c-50.81,0-92-41.19-92-92v0h802v0C901,920.81,859.81,962,809,962z"/>
			<path fill="#000000" d="M768.77,971.07c-14.11-16.13-35.01-19.44-54.67-9.2c-9.98-9.67-28.38-9.98-44.13-4.35c-5.68,2.03-75.15,29.56-97.52,38.43 c-8.35-14.2-25.85-19.47-32.86-21.57c-11.39-3.42-166.66-31.01-225.5-18.17c-20.04,4.37-173.71,61.92-180.24,64.37 c-4.65,1.74-7.01,6.93-5.27,11.59c1.75,4.66,6.94,7.01,11.59,5.27c44.16-16.55,162.17-60.23,177.76-63.63 c51.68-11.28,201.93,13.46,216.5,17.83c17.97,5.39,25.09,12.04,24.6,22.97c-0.57,12.63-7.05,18.07-25.67,21.56 c-12.73,2.39-120.55,10.82-161.02,13.87c-4.96,0.37-8.67,4.69-8.3,9.65c0.36,4.73,4.3,8.33,8.96,8.32c0.23,0,0.46-0.01,0.69-0.03 c2.63-0.2,31.33-2.36,64.04-4.99c8.42,4.51,41.14,22,55.26,29.06c21.87,10.93,36.25,2.87,54.47-7.34c2.17-1.22,4.46-2.5,6.87-3.81 c11.02-6.01,147.26-89.29,163.74-100.45c5.16-3.49,23.08-13.64,37.18,2.48c3.41,3.9,5.03,9.02,4.55,14.41 c-0.56,6.33-3.9,12.23-9.4,16.63c-6.76,5.41-171.11,134.74-191.44,148.59c-35.01,23.84-77.4,30.45-125.98,19.65 c-10.79-2.4-137.83-38.25-203.5-56.87c-1.85-0.53-3.83-0.44-5.64,0.24l-45,17c-4.65,1.76-7,6.95-5.24,11.6 c1.76,4.65,6.95,7,11.6,5.24l42.22-15.95c24.7,7,188.44,53.38,201.65,56.32c16.47,3.66,32.32,5.49,47.52,5.49 c34.3,0,65.28-9.3,92.5-27.83c21.31-14.51,186.19-144.32,192.56-149.41c9.37-7.5,15.08-17.83,16.08-29.09 C778.62,988.6,775.45,978.71,768.77,971.07z M545.69,1065.1c-2.47,1.35-4.82,2.66-7.05,3.91c-18.45,10.34-24.89,13.3-37.62,6.94 c-7-3.5-18.97-9.78-30.12-15.68c30.98-2.6,59.01-5.16,65.76-6.42c10.64-2,38.92-7.3,40.33-38.44c0.03-0.65,0.03-1.28,0.03-1.91 c34.65-13.74,94.17-37.3,99.01-39.03c7.65-2.73,15.7-3.29,21-1.9C660.36,995.71,555.27,1059.87,545.69,1065.1z"/>
			<polygon fill="#595959" points="0,1300 17.07,1300 195,1188 126,997 0,1032.71"/>
			<text fill="#000000" font-size="90" x="50%" y="98" dominant-baseline="middle" text-anchor="middle" font-family="Arial">Scan me!</text><rect x="218" y="253" height="563" width="564" clip-path="url('#clip-path-background-color')" fill="#ffffff"/><rect x="253" y="288" height="493" width="493" clip-path="url('#clip-path-dot-color')" fill="#000000"/><rect x="253" y="288" height="119" width="119" clip-path="url('#clip-path-corners-square-color-0-0')" fill="#000000"/><rect x="287" y="322" height="51" width="51" clip-path="url('#clip-path-corners-dot-color-0-0')" fill="#000000"/><rect x="627" y="288" height="119" width="119" clip-path="url('#clip-path-corners-square-color-1-0')" fill="#000000"/><rect x="661" y="322" height="51" width="51" clip-path="url('#clip-path-corners-dot-color-1-0')" fill="#000000"/><rect x="253" y="662" height="119" width="119" clip-path="url('#clip-path-corners-square-color-0-1')" fill="#000000"/><rect x="287" y="696" height="51" width="51" clip-path="url('#clip-path-corners-dot-color-0-1')" fill="#000000"/></svg>